HIERARCHY
ROOT SpineBase
{
  OFFSET 0.000000 0.000000 0.000000
  CHANNELS 6 Xposition Yposition Zposition Zrotation Xrotation Yrotation
  JOINT SpineMid
  {
    OFFSET 0.000000 28.842504 0.000000
    CHANNELS 3 Zrotation Xrotation Yrotation
    JOINT SpineShoulder
    {
      OFFSET -0.263465 21.513223 -0.775577
      CHANNELS 3 Zrotation Xrotation Yrotation
      JOINT Neck
      {
        OFFSET -0.127952 7.155522 -0.558601
        CHANNELS 3 Zrotation Xrotation Yrotation
        JOINT Head
        {
          OFFSET -4.731925 9.717841 -1.015903
          CHANNELS 3 Zrotation Xrotation Yrotation
          End Site
          {
            OFFSET 0 0 0
          }
        }
      }
      JOINT ShoulderLeft
      {
        OFFSET -11.768836 -1.944502 9.758528
        CHANNELS 3 Zrotation Xrotation Yrotation
        JOINT ElbowLeft
        {
          OFFSET -5.946042 -18.060665 6.937576
          CHANNELS 3 Zrotation Xrotation Yrotation
          JOINT WristLeft
          {
            OFFSET 4.337276 22.922288 -17.929559
            CHANNELS 3 Zrotation Xrotation Yrotation
            JOINT HandLeft
            {
              OFFSET 4.179354 20.982281 -11.929924
              CHANNELS 3 Zrotation Xrotation Yrotation
              JOINT HandTipLeft
              {
                OFFSET 0.874659 4.469342 -1.514133
                CHANNELS 3 Zrotation Xrotation Yrotation
                End Site
                {
                  OFFSET 0 0 0
                }
              }
              JOINT ThumbLeft
              {
                OFFSET 3.073472 -2.458242 -1.689738
                CHANNELS 3 Zrotation Xrotation Yrotation
                End Site
                {
                  OFFSET 0 0 0
                }
              }
            }
          }
        }
      }
      JOINT ShoulderRight
      {
        OFFSET 10.633215 -0.936953 -8.834949
        CHANNELS 3 Zrotation Xrotation Yrotation
        JOINT ElbowRight
        {
          OFFSET 10.261826 -17.760207 0.199440
          CHANNELS 3 Zrotation Xrotation Yrotation
          JOINT WristRight
          {
            OFFSET -2.908237 -19.530584 5.550256
            CHANNELS 3 Zrotation Xrotation Yrotation
            JOINT HandRight
            {
              OFFSET -2.232105 -5.329801 -7.686646
              CHANNELS 3 Zrotation Xrotation Yrotation
              JOINT HandTipRight
              {
                OFFSET 0.266518 -3.134632 -1.269229
                CHANNELS 3 Zrotation Xrotation Yrotation
                End Site
                {
                  OFFSET 0 0 0
                }
              }
              JOINT ThumbRight
              {
                OFFSET -1.109314 2.126240 -2.153600
                CHANNELS 3 Zrotation Xrotation Yrotation
                End Site
                {
                  OFFSET 0 0 0
                }
              }
            }
          }
        }
      }
    }
  }
  JOINT HipLeft
  {
    OFFSET -5.634867 0.875770 0.210486
    CHANNELS 3 Zrotation Xrotation Yrotation
    JOINT KneeLeft
    {
      OFFSET 0.734829 -27.305111 4.172978
      CHANNELS 3 Zrotation Xrotation Yrotation
      JOINT AnkleLeft
      {
        OFFSET 2.455120 -29.690401 5.095777
        CHANNELS 3 Zrotation Xrotation Yrotation
        JOINT FootLeft
        {
          OFFSET -5.962324 -3.371315 -8.662915
          CHANNELS 3 Zrotation Xrotation Yrotation
          End Site
          {
            OFFSET 0 0 0
          }
        }
      }
    }
  }
  JOINT HipRight
  {
    OFFSET 4.210182 1.842479 -6.478262
    CHANNELS 3 Zrotation Xrotation Yrotation
    JOINT KneeRight
    {
      OFFSET 11.629988 -24.865600 -4.795642
      CHANNELS 3 Zrotation Xrotation Yrotation
      JOINT AnkleRight
      {
        OFFSET 11.386662 -32.740656 0.246155
        CHANNELS 3 Zrotation Xrotation Yrotation
        JOINT FootRight
        {
          OFFSET -1.434778 -6.101802 -6.208776
          CHANNELS 3 Zrotation Xrotation Yrotation
          End Site
          {
            OFFSET 0 0 0
          }
        }
      }
    }
  }
}
MOTION
Frames: 13
Frame Time: 0.033333
68.880745 62.309962 321.962078 -0.000000 0.000000 34.192273 0.000000 -0.000000 -34.192273 -0.000000 0.000000 0.000000 -0.000000 0.000000 0.000000 0.000000 0.000000 0.000000 -0.000000 0.000000 0.000000 -0.000000 0.000000 0.000000 -0.000000 0.000000 0.000000 -0.000000 0.000000 0.000000 0.000000 0.000000 0.000000 0.000000 0.000000 0.000000 -0.000000 0.000000 0.000000 -0.000000 0.000000 0.000000 -0.000000 0.000000 0.000000 -0.000000 0.000000 0.000000 0.000000 0.000000 0.000000 0.000000 0.000000 0.000000 0.000000 -0.000000 -34.192273 -0.000000 0.000000 0.000000 -0.000000 0.000000 0.000000 0.000000 0.000000 0.000000 0.000000 -0.000000 -34.192273 -0.000000 0.000000 0.000000 -0.000000 0.000000 0.000000 0.000000 0.000000 0.000000
68.866556 62.314368 321.955085 -0.042395 0.144982 34.400029 -0.046929 -0.143579 -34.400034 -0.000000 0.000000 0.000000 -0.000000 0.000000 0.000000 0.000000 0.000000 0.000000 -0.000000 0.000000 0.000000 -0.000000 0.000000 0.000000 -0.000000 0.000000 0.000000 1.802492 -1.328383 0.890805 0.000000 0.000000 0.000000 0.000000 0.000000 0.000000 -0.000000 0.000000 0.000000 -0.000000 0.000000 0.000000 -2.124660 6.829866 0.299515 4.937900 -11.720028 -1.157073 0.000000 0.000000 0.000000 0.000000 0.000000 0.000000 -0.046929 -0.143579 -34.400034 -0.000000 0.000000 0.000000 -1.794090 3.971298 -2.107221 0.000000 0.000000 0.000000 -0.046929 -0.143579 -34.400034 -0.000000 0.000000 0.000000 3.180185 -1.068097 -3.003372 0.000000 0.000000 0.000000
68.846567 62.315154 321.953527 -0.060781 0.258411 34.567055 -0.096564 -0.247277 -34.567127 -0.000000 0.000000 0.000000 -0.000000 0.000000 0.000000 0.000000 0.000000 0.000000 -0.000000 0.000000 0.000000 -0.000000 0.000000 0.000000 -0.000000 0.000000 0.000000 2.988319 -2.160531 1.489854 0.000000 0.000000 0.000000 0.000000 0.000000 0.000000 -0.338173 -0.842176 -0.493698 0.330940 0.845045 0.488772 -4.259779 13.299140 0.885628 8.829031 -20.778617 -0.995268 0.000000 0.000000 0.000000 0.000000 0.000000 0.000000 -0.096564 -0.247277 -34.567127 -0.000000 0.000000 0.000000 -2.717969 6.148289 -3.179460 0.000000 0.000000 0.000000 -0.096564 -0.247277 -34.567127 -0.000000 0.000000 0.000000 5.391877 -1.601564 -5.165671 0.000000 0.000000 0.000000
68.820779 62.312318 321.957403 -0.054869 0.339680 34.692779 -0.148225 -0.310520 -34.693018 -0.376620 0.777297 -0.012955 -0.047930 -1.436238 -0.355854 0.000000 0.000000 0.000000 0.376830 -0.777195 0.018065 0.584224 0.776430 0.308032 -0.977589 -1.618850 -0.373504 4.115536 -1.801501 1.858364 0.000000 0.000000 0.000000 0.000000 0.000000 0.000000 -0.154969 -1.891290 -0.645639 0.519263 1.119935 0.646246 -6.280265 18.879641 1.688753 12.114613 -27.630532 -0.224310 0.000000 0.000000 0.000000 0.000000 0.000000 0.000000 -0.148225 -0.310520 -34.693018 -0.000000 0.000000 0.000000 -3.096525 7.035396 -3.572455 0.000000 0.000000 0.000000 -0.148225 -0.310520 -34.693018 -0.000000 0.000000 0.000000 6.691160 -1.511113 -6.543349 0.000000 0.000000 0.000000
68.789191 62.305861 321.966714 -0.024488 0.388342 34.776834 -0.201391 -0.332943 -34.777337 -0.334381 0.836248 -0.008715 -0.411679 -1.579337 -0.443067 0.000000 0.000000 0.000000 0.334544 -0.836183 0.013597 0.708447 0.965287 0.368383 -1.157107 -2.003225 -0.430735 4.561998 -1.833836 2.023162 0.000000 0.000000 0.000000 0.000000 0.000000 0.000000 -0.406738 -2.123539 -0.760421 0.724241 1.296904 0.746675 -8.033632 23.168092 2.578705 14.764511 -32.313262 0.690771 0.000000 0.000000 0.000000 0.000000 0.000000 0.000000 -0.201391 -0.332943 -34.777337 -0.000000 0.000000 0.000000 -3.039445 6.822735 -3.404896 0.000000 0.000000 0.000000 -0.201391 -0.332943 -34.777337 -0.000000 0.000000 0.000000 7.123327 -0.752885 -7.177494 0.000000 0.000000 0.000000
68.751803 62.295783 321.981458 0.030407 0.404107 34.819059 -0.255705 -0.314392 -34.819868 -0.207243 0.792547 -0.000573 -0.951982 -1.552998 -0.513911 0.000000 0.000000 0.000000 0.207271 -0.792540 0.003440 0.797692 1.118914 0.408095 -1.262578 -2.310297 -0.452597 4.671371 -1.685707 2.022670 0.000000 0.000000 0.000000 0.000000 0.000000 0.000000 -0.758846 -2.155102 -0.823451 0.946619 1.376002 0.790673 -9.362648 25.932904 3.397526 16.582227 -34.785564 1.358296 0.000000 0.000000 0.000000 0.000000 0.000000 0.000000 -0.255705 -0.314392 -34.819868 -0.000000 0.000000 0.000000 -2.523330 5.467605 -2.643670 0.000000 0.000000 0.000000 -0.255705 -0.314392 -34.819868 -0.000000 0.000000 0.000000 6.702413 0.686406 -7.074659 0.000000 0.000000 0.000000
68.711089 62.270798 321.998217 0.088074 0.410060 34.794619 -0.306325 -0.286483 -34.795700 -0.000000 0.000000 0.000000 -1.618018 -0.740243 -0.543430 0.000000 0.000000 0.000000 0.829601 0.522073 0.143610 -0.029706 0.660603 0.252180 -1.011196 -2.622827 -0.242741 3.961791 -0.091423 1.354940 0.000000 0.000000 0.000000 0.000000 0.000000 0.000000 -1.254052 -1.387519 -0.836174 1.234043 1.405344 0.805852 -6.916273 21.834676 1.584767 14.512902 -28.997357 0.996111 0.000000 0.000000 0.000000 0.000000 0.000000 0.000000 -0.306325 -0.286483 -34.795700 -0.000000 0.000000 0.000000 -1.382182 2.454573 -0.706298 0.000000 0.000000 0.000000 -0.306325 -0.286483 -34.795700 -0.000000 0.000000 0.000000 4.513067 4.106096 -5.566385 0.000000 0.000000 0.000000
68.663064 62.244587 322.025854 0.143957 0.417499 34.810791 -0.356534 -0.260601 -34.812126 -0.000000 0.000000 0.000000 -2.266681 -0.799291 -0.647770 0.000000 0.000000 0.000000 0.778542 0.434346 0.153681 0.035556 0.839755 0.235351 -1.141010 -2.944777 -0.260883 6.031284 -0.859246 2.237166 0.000000 0.000000 0.000000 0.000000 0.000000 0.000000 -1.449009 -1.291777 -0.784649 1.431560 1.311089 0.751932 -7.133949 21.259765 2.032093 13.782716 -26.983587 0.416509 0.000000 0.000000 0.000000 0.000000 0.000000 0.000000 -0.356534 -0.260601 -34.812126 -0.000000 0.000000 0.000000 2.390717 -5.324503 4.017393 0.000000 0.000000 0.000000 -0.356534 -0.260601 -34.812126 -0.000000 0.000000 0.000000 5.826460 2.716287 -6.622811 0.000000 0.000000 0.000000
68.606418 62.231309 322.060320 0.276773 0.333288 34.772649 -0.417429 -0.115917 -34.773877 -0.000000 0.000000 0.000000 -2.970993 -0.565851 -0.608225 0.000000 0.000000 0.000000 0.845994 0.770679 0.065883 -0.026652 0.559117 0.317000 -1.180649 -2.884665 -0.299073 3.118912 2.140381 0.619075 0.000000 0.000000 0.000000 0.000000 0.000000 0.000000 -1.680277 -1.061467 -0.653228 1.668363 1.080099 0.621935 -7.272155 20.220644 2.525833 13.868721 -24.477205 -0.301919 0.000000 0.000000 0.000000 0.000000 0.000000 0.000000 -0.417429 -0.115917 -34.773877 0.835197 0.191473 0.157735 5.872717 -12.617997 8.657156 0.000000 0.000000 0.000000 -0.417429 -0.115917 -34.773877 -0.000000 0.000000 0.000000 4.040696 4.643492 -5.194708 0.000000 0.000000 0.000000
68.551067 62.237778 322.078229 0.554171 0.078880 34.591890 -0.500988 0.249682 -34.591180 1.021707 -0.419904 0.075964 -4.872032 0.583592 -0.365481 0.000000 0.000000 0.000000 0.072991 2.318830 -0.302719 -0.165631 -0.326255 0.638590 -1.074854 -2.795781 -0.277912 2.768258 -2.708521 1.516812 0.000000 0.000000 0.000000 0.000000 0.000000 0.000000 -2.833612 -0.249011 -0.478302 1.806855 0.685183 0.401754 -8.460868 20.272545 4.002135 15.143022 -25.847293 -1.419952 0.000000 0.000000 0.000000 0.000000 0.000000 0.000000 -0.500988 0.249682 -34.591180 0.978465 0.224915 0.184548 9.395085 -17.507086 12.024988 0.000000 0.000000 0.000000 -0.500988 0.249682 -34.591180 -0.000000 0.000000 0.000000 0.161886 7.919099 -1.907122 0.000000 0.000000 0.000000
68.470796 62.248595 322.125847 0.812595 -0.191515 34.330496 -0.050170 -0.439415 -34.297310 0.203214 -0.253673 0.052488 -5.754044 1.531601 -0.117714 0.000000 0.000000 0.000000 -0.319743 2.611984 -0.340073 0.078674 -0.233821 0.722417 -1.297362 -2.785203 -0.422086 5.228394 -5.899826 3.151541 0.000000 0.000000 0.000000 0.000000 0.000000 0.000000 -3.496043 0.463095 -0.291931 2.272707 0.386786 0.238612 -10.266248 22.318119 5.599867 15.048851 -25.353359 -1.759327 0.000000 0.000000 0.000000 0.000000 0.000000 0.000000 -0.563062 0.616408 -34.326109 1.077694 0.257171 0.203737 10.703686 -19.091285 12.564882 0.000000 0.000000 0.000000 -1.406480 0.585744 -34.420892 0.678349 0.502066 0.100659 -5.189217 12.022653 2.677256 0.000000 0.000000 0.000000
68.365869 62.267615 322.179711 1.023733 -0.435102 34.013465 -0.157564 -0.337676 -33.977815 0.051898 -0.208088 0.042917 -6.228055 2.023962 0.033766 0.000000 0.000000 0.000000 -0.127904 3.259062 -0.457080 -0.113299 -1.092761 0.840275 -0.890719 -1.148348 -0.483850 6.670769 -8.915083 4.462093 0.000000 0.000000 0.000000 0.000000 0.000000 0.000000 -4.019021 0.842244 -0.147507 2.885310 0.178839 0.129357 -11.392974 23.755756 6.531896 14.212274 -25.017797 -1.843841 0.000000 0.000000 0.000000 0.000000 0.000000 0.000000 -0.605275 0.933272 -34.004648 1.198069 0.307061 0.227721 9.175682 -17.148707 9.852281 0.000000 0.000000 0.000000 -1.535677 0.878399 -34.112166 0.739400 0.567229 0.118567 -11.072629 16.123286 7.751118 0.000000 0.000000 0.000000
68.247733 62.286044 322.234847 1.173601 -0.612205 33.602871 -0.291335 -0.100174 -33.568295 -0.157349 -0.101294 0.024399 -6.393460 2.043993 0.051903 0.000000 0.000000 0.000000 0.165253 2.914984 -0.340345 -0.951489 -3.843901 0.620056 -0.010446 1.882646 -0.368993 8.324669 -8.912801 5.156696 0.000000 0.000000 0.000000 0.000000 0.000000 0.000000 -4.581517 0.905434 -0.054398 3.752677 0.059006 0.072936 -12.167208 25.270680 7.004309 15.034403 -28.674966 -1.656545 0.000000 0.000000 0.000000 0.000000 0.000000 0.000000 -0.638823 1.159328 -33.590137 1.319160 0.344825 0.250852 5.617247 -11.881625 4.789558 0.000000 0.000000 0.000000 -1.669048 1.093463 -33.704129 1.451309 1.241317 0.337173 -16.799926 18.594114 11.929748 0.000000 0.000000 0.000000
